# xmcd CD database file generated by OrangeCD 5.2
#
# Track frame offsets:
#	150
#	12383
#	29749
#	46797
#	62816
#	84034
#	110034
#	123026
#	136057
#	150205
#	170270
#	187597
#	207205
#
# Disc length: 2970 seconds
#
# Revision: 0
# Processed by: cddbd v1.5.1PL0 Copyright (c) Steve Scherf et al.
# Submitted via: OrangeCD 5.2
#
DISCID=940b980d
DTITLE=Sons of the San Joaquin - Way Out Yonder
DYEAR=2005
DGENRE=Western
TTITLE0=There's A Rainbow Over The Range
TTITLE1=Ridin' Up The Glory Trail
TTITLE2=Song From Nara Visa
TTITLE3=The Famous Long X Brand
TTITLE4=Santa Fe Lights
TTITLE5=The Ballad Of Joaquin Murrieta
TTITLE6=Little Cowboy
TTITLE7=It's The Open Range For Me
TTITLE8=A Cowboy's Heart Is In The Saddle
TTITLE9=Mexicali Rose
TTITLE10=The Lord Of The Rollin' Hills
TTITLE11=Way Out Yonder
TTITLE12=Where The Very Same Cottonwoods Grow
EXTD=
EXTT0=
EXTT1=
EXTT2=
EXTT3=
EXTT4=
EXTT5=
EXTT6=
EXTT7=
EXTT8=
EXTT9=
EXTT10=
EXTT11=
EXTT12=
PLAYORDER=
